<svg width="118" height="28" viewBox="0 0 118 28" fill="none" xmlns="http://www.w3.org/2000/svg">
<path d="M0.050293 2.0131H7.67243C12.5318 2.0131 16.546 4.82468 16.546 11.2442V12.5931C16.546 19.0613 12.7918 21.9704 7.8187 21.9704H0.050293V2.0131ZM4.30829 5.63727V18.33H7.57492C10.3377 18.33 12.1905 16.526 12.1905 12.5118V11.4555C12.1905 7.44123 10.2402 5.63727 7.42865 5.63727H4.30829ZM18.805 5.83229H22.2179L22.7705 9.58648C23.4205 7.03493 25.0782 5.66977 28.0848 5.66977H29.1412V9.97653H27.386C23.9243 9.97653 23.0792 11.1792 23.0792 14.5921V22.0192H18.87V5.83229H18.805ZM29.9863 14.2508V13.7957C29.9863 8.38384 33.448 5.426 38.161 5.426C42.9716 5.426 46.3357 8.38384 46.3357 13.7957V14.2508C46.3357 19.5652 43.0691 22.4255 38.161 22.4255C32.9441 22.3767 29.9863 19.5814 29.9863 14.2508ZM42.029 14.202V13.7957C42.029 10.7891 40.5175 8.98516 38.1123 8.98516C35.7557 8.98516 34.1955 10.6429 34.1955 13.7957V14.202C34.1955 17.1111 35.707 18.7688 38.1123 18.7688C40.5175 18.7201 42.029 17.1111 42.029 14.202ZM48.546 5.83229H52.0564L52.4627 8.88765C53.3078 6.83991 55.1118 5.426 57.7771 5.426C61.8888 5.426 64.6029 8.38384 64.6029 13.8607V14.3158C64.6029 19.6302 61.5963 22.4417 57.7771 22.4417C55.2255 22.4417 53.4703 21.2879 52.6089 19.4351V27.6098H48.4972L48.546 5.83229ZM60.3286 14.202V13.8445C60.3286 10.6266 58.6709 9.03392 56.4607 9.03392C54.1041 9.03392 52.5439 10.8379 52.5439 13.8445V14.1533C52.5439 17.0136 54.0554 18.8176 56.4119 18.8176C58.8334 18.7688 60.3286 17.2249 60.3286 14.202ZM70.8273 19.0288L70.4698 21.9867H66.8619V0.42041H70.9736V8.69263C71.8837 6.57988 73.6877 5.426 76.2392 5.426C80.1072 5.47475 82.9675 8.14006 82.9675 13.5032V14.007C82.9675 19.3701 80.2534 22.4417 76.1417 22.4417C73.4277 22.3767 71.6724 21.1253 70.8273 19.0288ZM78.6445 14.007V13.6007C78.6445 10.6429 77.0356 8.98516 74.7766 8.98516C72.4688 8.98516 70.8599 10.8379 70.8599 13.6495V14.007C70.8599 17.0136 72.42 18.7688 74.7278 18.7688C77.1981 18.7688 78.6445 17.2249 78.6445 14.007ZM84.7715 14.2508V13.7957C84.7715 8.38384 88.2331 5.426 92.9462 5.426C97.7568 5.426 101.121 8.38384 101.121 13.7957V14.2508C101.121 19.5652 97.8055 22.4255 92.9462 22.4255C87.7293 22.3767 84.7715 19.5814 84.7715 14.2508ZM96.8466 14.202V13.7957C96.8466 10.7891 95.3352 8.98516 92.9299 8.98516C90.5734 8.98516 89.0132 10.6429 89.0132 13.7957V14.202C89.0132 17.1111 90.5247 18.7688 92.9299 18.7688C95.3515 18.7201 96.8466 17.1111 96.8466 14.202ZM106.63 13.6007L100.958 5.83229H105.818L109.084 10.6916L112.4 5.83229H117.21L111.457 13.5519L117.519 21.9867H112.757L109.052 16.6236L105.444 21.9867H100.471L106.63 13.6007Z" fill="#272D38"/>
</svg>
