<svg width="84" height="26" viewBox="0 0 84 26" fill="none" xmlns="http://www.w3.org/2000/svg">
<path d="M0.925062 23.4264L2.39318 19.9949C4.00064 21.1853 6.0973 21.8154 8.19447 21.8154C9.73226 21.8154 10.7107 21.2204 10.7107 20.3102C10.6756 17.789 1.44935 19.7498 1.37918 13.4112C1.34409 10.1897 4.21015 7.70362 8.26464 7.70362C10.6756 7.70362 13.0875 8.29909 14.7997 9.66495L13.4279 13.1696C11.8525 12.1566 9.90669 11.4504 8.05463 11.4504C6.79653 11.4504 5.95746 12.0453 5.95746 12.8162C5.99255 15.3023 15.2895 13.9365 15.3942 19.9949C15.3942 23.2865 12.5978 25.5977 8.6135 25.5977C5.67827 25.5977 2.98714 24.8975 0.924561 23.4264H0.925062ZM59.3831 18.7523C59.0125 19.4108 58.4735 19.9588 57.8212 20.3402C57.169 20.7216 56.427 20.9226 55.6715 20.9227C53.3167 20.9227 51.4079 19.01 51.4079 16.6507C51.4079 14.2914 53.3167 12.3786 55.6715 12.3786C56.427 12.3787 57.169 12.5797 57.8212 12.9611C58.4735 13.3425 59.0125 13.8905 59.3831 14.549L63.4647 12.2834C61.9359 9.55117 59.0197 7.70362 55.6715 7.70362C50.7398 7.70362 46.742 11.709 46.742 16.6507C46.742 21.5918 50.7398 25.5977 55.6715 25.5977C59.0197 25.5977 61.9359 23.7502 63.4647 21.0179L59.3831 18.7523ZM18.0427 25.2473H23.1453V0.255768H18.0432L18.0427 25.2473ZM66.0415 0.255768V25.2473H71.1441V17.7599L77.1905 25.2473H83.7125L76.0236 16.3524L83.1532 8.05248H76.9108L71.1441 14.953V0.255768H66.0415ZM38.8655 8.05348V10.085C38.027 8.68403 35.9649 7.70362 33.7981 7.70362C29.3245 7.70362 25.7948 11.6609 25.7948 16.6331C25.7948 21.6054 29.3245 25.5977 33.7981 25.5977C35.9649 25.5977 38.027 24.6173 38.8655 23.2163V25.2473H43.9681V8.05348H38.8655ZM38.8655 18.7869C38.1317 20.0124 36.5939 20.9222 34.8817 20.9222C32.5264 20.9222 30.6177 19.01 30.6177 16.6507C30.6177 14.2914 32.5264 12.3786 34.8817 12.3786C36.5939 12.3786 38.1317 13.324 38.8655 14.5841V18.7869Z" fill="#272D38"/>
</svg>
